<?xml version="1.0" encoding="UTF-8" standalone="no"?>
<svg
   xmlns:dc="http://purl.org/dc/elements/1.1/"
   xmlns:cc="http://creativecommons.org/ns#"
   xmlns:rdf="http://www.w3.org/1999/02/22-rdf-syntax-ns#"
   xmlns:svg="http://www.w3.org/2000/svg"
   xmlns="http://www.w3.org/2000/svg"
   xmlns:sodipodi="http://sodipodi.sourceforge.net/DTD/sodipodi-0.dtd"
   xmlns:inkscape="http://www.inkscape.org/namespaces/inkscape"
   inkscape:export-ydpi="576"
   inkscape:export-xdpi="576"
   inkscape:export-filename="D:\project\finish project september adnan\filled line\png\8 - Video Web.png"
   sodipodi:docname="9 - Layer.svg"
   inkscape:version="1.0 (4035a4fb49, 2020-05-01)"
   id="svg831"
   version="1.1"
   viewBox="0 0 22.577778 22.577778"
   height="64pt"
   width="64pt">
  <defs
     id="defs825">
    <pattern
       y="0"
       x="0"
       height="6"
       width="6"
       patternUnits="userSpaceOnUse"
       id="EMFhbasepattern" />
    <pattern
       y="0"
       x="0"
       height="6"
       width="6"
       patternUnits="userSpaceOnUse"
       id="EMFhbasepattern-9" />
    <pattern
       y="0"
       x="0"
       height="6"
       width="6"
       patternUnits="userSpaceOnUse"
       id="EMFhbasepattern-0" />
    <pattern
       y="0"
       x="0"
       height="6"
       width="6"
       patternUnits="userSpaceOnUse"
       id="EMFhbasepattern-7" />
    <pattern
       y="0"
       x="0"
       height="6"
       width="6"
       patternUnits="userSpaceOnUse"
       id="EMFhbasepattern-2" />
    <pattern
       y="0"
       x="0"
       height="6"
       width="6"
       patternUnits="userSpaceOnUse"
       id="EMFhbasepattern-98" />
    <pattern
       y="0"
       x="0"
       height="6"
       width="6"
       patternUnits="userSpaceOnUse"
       id="EMFhbasepattern-6" />
    <pattern
       y="0"
       x="0"
       height="6"
       width="6"
       patternUnits="userSpaceOnUse"
       id="EMFhbasepattern-01" />
    <pattern
       y="0"
       x="0"
       height="6"
       width="6"
       patternUnits="userSpaceOnUse"
       id="EMFhbasepattern-07" />
    <pattern
       y="0"
       x="0"
       height="6"
       width="6"
       patternUnits="userSpaceOnUse"
       id="EMFhbasepattern-8" />
    <pattern
       y="0"
       x="0"
       height="6"
       width="6"
       patternUnits="userSpaceOnUse"
       id="EMFhbasepattern-4" />
    <pattern
       y="0"
       x="0"
       height="6"
       width="6"
       patternUnits="userSpaceOnUse"
       id="EMFhbasepattern-40" />
    <pattern
       y="0"
       x="0"
       height="6"
       width="6"
       patternUnits="userSpaceOnUse"
       id="EMFhbasepattern-08" />
    <pattern
       y="0"
       x="0"
       height="6"
       width="6"
       patternUnits="userSpaceOnUse"
       id="EMFhbasepattern-04" />
    <pattern
       y="0"
       x="0"
       height="6"
       width="6"
       patternUnits="userSpaceOnUse"
       id="EMFhbasepattern-014" />
    <pattern
       y="0"
       x="0"
       height="6"
       width="6"
       patternUnits="userSpaceOnUse"
       id="EMFhbasepattern-27" />
    <pattern
       y="0"
       x="0"
       height="6"
       width="6"
       patternUnits="userSpaceOnUse"
       id="EMFhbasepattern-09" />
    <pattern
       y="0"
       x="0"
       height="6"
       width="6"
       patternUnits="userSpaceOnUse"
       id="EMFhbasepattern-5" />
    <pattern
       y="0"
       x="0"
       height="6"
       width="6"
       patternUnits="userSpaceOnUse"
       id="EMFhbasepattern-018" />
    <inkscape:path-effect
       effect="fillet_chamfer"
       id="path-effect1446"
       is_visible="true"
       lpeversion="1"
       satellites_param="F,0,0,1,0,0,0,1 @ F,0,0,1,0,0,0,1 @ F,0,0,1,0,0,0,1 @ F,0,0,1,0,1.4196621,0,1 @ F,0,0,1,0,0,0,1 @ F,0,0,1,0,0,0,1 @ F,0,0,1,0,0,0,1 @ F,0,0,1,0,0,0,1 @ F,0,0,1,0,0,0,1"
       unit="px"
       method="auto"
       mode="F"
       radius="0"
       chamfer_steps="1"
       flexible="false"
       use_knot_distance="true"
       apply_no_radius="true"
       apply_with_radius="true"
       only_selected="true"
       hide_knots="false" />
    <inkscape:path-effect
       hide_knots="false"
       only_selected="true"
       apply_with_radius="true"
       apply_no_radius="true"
       use_knot_distance="true"
       flexible="false"
       chamfer_steps="1"
       radius="0"
       mode="F"
       method="auto"
       unit="px"
       satellites_param="F,0,0,1,0,0,0,1 @ F,0,0,1,0,0,0,1 @ F,0,0,1,0,0,0,1 @ F,0,0,1,0,0,0,1 @ F,0,0,1,0,0,0,1 @ F,0,0,1,0,0,0,1 @ F,0,0,1,0,3.041614,0,1"
       lpeversion="1"
       is_visible="true"
       id="path-effect1471"
       effect="fillet_chamfer" />
    <inkscape:path-effect
       hide_knots="false"
       only_selected="true"
       apply_with_radius="true"
       apply_no_radius="true"
       use_knot_distance="true"
       flexible="false"
       chamfer_steps="1"
       radius="0"
       mode="F"
       method="auto"
       unit="px"
       satellites_param="F,0,0,1,0,0,0,1 @ F,0,0,1,0,0,0,1 @ F,0,0,1,0,0,0,1 @ F,0,0,1,0,0.93505445,0,1 @ F,0,0,1,0,0,0,1 @ F,0,0,1,0,0,0,1 @ F,0,0,1,0,0,0,1 @ F,0,0,1,0,0,0,1 @ F,0,0,1,0,0,0,1 @ F,0,0,1,0,0,0,1 @ F,0,0,1,0,0,0,1"
       lpeversion="1"
       is_visible="true"
       id="path-effect1395"
       effect="fillet_chamfer" />
    <inkscape:path-effect
       hide_knots="false"
       only_selected="true"
       apply_with_radius="true"
       apply_no_radius="true"
       use_knot_distance="true"
       flexible="false"
       chamfer_steps="1"
       radius="0"
       mode="F"
       method="auto"
       unit="px"
       satellites_param="F,0,0,1,0,0,0,1 @ F,0,0,1,0,0,0,1 @ F,0,0,1,0,0,0,1 @ F,0,0,1,0,3.6518261,0,1 @ F,0,0,1,0,0,0,1 @ F,0,0,1,0,0,0,1 @ F,0,0,1,0,0,0,1 @ F,0,0,1,0,0,0,1 @ F,0,0,1,0,0,0,1 @ F,0,0,1,0,0,0,1 @ F,0,0,1,0,0,0,1 @ F,0,0,1,0,0,0,1"
       lpeversion="1"
       is_visible="true"
       id="path-effect1404"
       effect="fillet_chamfer" />
  </defs>
  <sodipodi:namedview
     inkscape:document-rotation="0"
     inkscape:snap-global="true"
     inkscape:snap-nodes="false"
     inkscape:bbox-nodes="true"
     inkscape:snap-bbox="true"
     showguides="true"
     inkscape:snap-midpoints="true"
     inkscape:snap-smooth-nodes="true"
     inkscape:snap-intersection-paths="true"
     inkscape:object-paths="true"
     inkscape:showpageshadow="false"
     inkscape:pagecheckerboard="true"
     inkscape:window-maximized="1"
     inkscape:window-y="-8"
     inkscape:window-x="-8"
     inkscape:window-height="706"
     inkscape:window-width="1366"
     units="pt"
     showgrid="false"
     inkscape:current-layer="g1549"
     inkscape:document-units="pt"
     inkscape:cy="42.774962"
     inkscape:cx="42.66666"
     inkscape:zoom="5.5255341"
     inkscape:pageshadow="2"
     inkscape:pageopacity="0.0"
     borderopacity="1.0"
     bordercolor="#666666"
     pagecolor="#ffffff"
     id="base">
    <inkscape:grid
       id="grid1378"
       type="xygrid" />
    <sodipodi:guide
       inkscape:locked="false"
       id="guide1380"
       orientation="78.000048,0"
       position="0.97013831,21.607643" />
    <sodipodi:guide
       inkscape:locked="false"
       id="guide1382"
       orientation="0,78.000005"
       position="0.97013831,0.97013129" />
    <sodipodi:guide
       inkscape:locked="false"
       id="guide1384"
       orientation="-78.000048,0"
       position="21.607639,0.97013129" />
    <sodipodi:guide
       inkscape:locked="false"
       id="guide1386"
       orientation="0,-78.000005"
       position="21.607639,21.607643" />
  </sodipodi:namedview>
  <metadata
     id="metadata828">
    <rdf:RDF>
      <cc:Work
         rdf:about="">
        <dc:format>image/svg+xml</dc:format>
        <dc:type
           rdf:resource="http://purl.org/dc/dcmitype/StillImage" />
        <dc:title></dc:title>
      </cc:Work>
    </rdf:RDF>
  </metadata>
  <g
     transform="translate(0,-274.42223)"
     id="layer1"
     inkscape:groupmode="layer"
     inkscape:label="Icon">
    <g
       transform="matrix(1.2580248,0,0,1.2580248,39.010878,-77.270809)"
       style="display:inline;stroke-width:0.794897"
       id="g1549">
      <g
         transform="matrix(0.9913513,0,0,0.9913513,-60.667847,2.5311856)"
         style="display:inline;stroke-width:0.637374"
         id="g1605">
        <g
           style="stroke-width:0.637374"
           id="g1432">
          <path
             id="path1362"
             d="m 40.083984,287.62695 -2.804687,0.10352 a 0.26460996,0.26460996 0 0 0 -0.132813,0.041 l -4.416015,2.78711 a 0.26460996,0.26460996 0 0 0 -0.0039,0.002 l -1.230468,0.80078 c -0.213829,0.13923 -0.369301,0.34828 -0.371094,0.59179 -0.0018,0.24352 0.157333,0.45695 0.378906,0.58985 l 6.716797,4.02734 c 0.445685,0.26732 1.048461,0.26732 1.494141,0 l 6.714844,-4.02734 c 0.222587,-0.13351 0.383114,-0.34896 0.382812,-0.59375 -3.02e-4,-0.24479 -0.159622,-0.45708 -0.380859,-0.5918 l -1.210938,-0.73828 a 0.26460996,0.26460996 0 0 0 -0.002,-0.002 l -4.990234,-2.95313 a 0.26460996,0.26460996 0 0 0 -0.144532,-0.0371 z"
             style="color:#000000;font-style:normal;font-variant:normal;font-weight:normal;font-stretch:normal;font-size:medium;line-height:normal;font-family:sans-serif;font-variant-ligatures:normal;font-variant-position:normal;font-variant-caps:normal;font-variant-numeric:normal;font-variant-alternates:normal;font-variant-east-asian:normal;font-feature-settings:normal;font-variation-settings:normal;text-indent:0;text-align:start;text-decoration:none;text-decoration-line:none;text-decoration-style:solid;text-decoration-color:#000000;letter-spacing:normal;word-spacing:normal;text-transform:none;writing-mode:lr-tb;direction:ltr;text-orientation:mixed;dominant-baseline:auto;baseline-shift:baseline;text-anchor:start;white-space:normal;shape-padding:0;shape-margin:0;inline-size:0;clip-rule:nonzero;display:inline;overflow:visible;visibility:visible;isolation:auto;mix-blend-mode:normal;color-interpolation:sRGB;color-interpolation-filters:linearRGB;solid-color:#000000;solid-opacity:1;vector-effect:none;fill:#3a4d5c;fill-opacity:1;fill-rule:nonzero;stroke:none;stroke-width:0.424303;stroke-linecap:round;stroke-linejoin:round;stroke-miterlimit:4;stroke-dasharray:none;stroke-dashoffset:0;stroke-opacity:1;color-rendering:auto;image-rendering:auto;shape-rendering:auto;text-rendering:auto;enable-background:accumulate;stop-color:#000000" />
          <path
             sodipodi:nodetypes="cccccccc"
             transform="matrix(0.26458334,0,0,0.26458334,0,280.06666)"
             d="m 151.49805,28.574219 -10.59961,0.390625 c -0.17826,0.0064 -0.35157,0.06034 -0.50196,0.15625 l -16.70551,10.540965 20.51597,12.522645 a 6.0376831,6.0376831 0.1636632 0 0 6.26176,0.01789 l 20.44422,-12.319089 -18.868,-11.168657 c -0.165,-0.09843 -0.35486,-0.147252 -0.54687,-0.140625 z"
             style="fill:#143441;fill-opacity:1;stroke:none;stroke-width:1.60366;stroke-linecap:round;stroke-linejoin:round;stroke-opacity:1"
             id="path1391" />
          <path
             id="path1345"
             d="m 39.976562,284.23438 -2.839843,0.13867 a 0.26460996,0.26460996 0 0 0 -0.128907,0.041 l -4.265624,2.72266 -1.242188,0.7832 c -0.217384,0.13711 -0.373925,0.34767 -0.375,0.5918 -0.0011,0.24413 0.156846,0.45861 0.378906,0.5918 l 6.716797,4.02734 c 0.445688,0.26732 1.048466,0.2673 1.494141,0 l 6.714844,-4.02734 c 0.223619,-0.13413 0.383697,-0.34975 0.384765,-0.59571 0.0011,-0.24596 -0.160409,-0.46369 -0.388672,-0.59375 l -1.265625,-0.72265 -5.039062,-2.92188 a 0.26460996,0.26460996 0 0 0 -0.144532,-0.0351 z"
             style="color:#000000;font-style:normal;font-variant:normal;font-weight:normal;font-stretch:normal;font-size:medium;line-height:normal;font-family:sans-serif;font-variant-ligatures:normal;font-variant-position:normal;font-variant-caps:normal;font-variant-numeric:normal;font-variant-alternates:normal;font-variant-east-asian:normal;font-feature-settings:normal;font-variation-settings:normal;text-indent:0;text-align:start;text-decoration:none;text-decoration-line:none;text-decoration-style:solid;text-decoration-color:#000000;letter-spacing:normal;word-spacing:normal;text-transform:none;writing-mode:lr-tb;direction:ltr;text-orientation:mixed;dominant-baseline:auto;baseline-shift:baseline;text-anchor:start;white-space:normal;shape-padding:0;shape-margin:0;inline-size:0;clip-rule:nonzero;display:inline;overflow:visible;visibility:visible;isolation:auto;mix-blend-mode:normal;color-interpolation:sRGB;color-interpolation-filters:linearRGB;solid-color:#000000;solid-opacity:1;vector-effect:none;fill:#fef79c;fill-opacity:1;fill-rule:nonzero;stroke:none;stroke-width:0.424303;stroke-linecap:round;stroke-linejoin:round;stroke-miterlimit:4;stroke-dasharray:none;stroke-dashoffset:0;stroke-opacity:1;color-rendering:auto;image-rendering:auto;shape-rendering:auto;text-rendering:auto;enable-background:accumulate;stop-color:#000000" />
          <path
             sodipodi:nodetypes="ccccssccc"
             transform="matrix(0.26458334,0,0,0.26458334,0,280.06666)"
             d="m 151.0918,15.751953 -10.73242,0.523438 c -0.17357,0.0088 -0.34187,0.06262 -0.48829,0.15625 l -16.71873,10.74022 19.24749,11.508276 c 2.08496,1.24662 6.64207,1.275736 8.75448,0.07623 L 171.28708,27.324205 151.63867,15.884766 c -0.16582,-0.0957 -0.35563,-0.1418 -0.54687,-0.132813 z"
             style="fill:#fed883;fill-opacity:1;stroke:none;stroke-width:1.60366;stroke-linecap:round;stroke-linejoin:round;stroke-opacity:1"
             id="path1385" />
          <path
             id="path1327"
             d="m 38.220703,280.42383 -6.716797,4.02734 c -0.222842,0.13366 -0.380857,0.3487 -0.380859,0.59375 -2e-6,0.24506 0.158021,0.46009 0.380859,0.59375 l 6.716797,4.02735 c 0.44568,0.2673 1.048455,0.26731 1.494141,0 l 6.714844,-4.02735 c 0.222843,-0.13366 0.382814,-0.34869 0.382812,-0.59375 -2e-6,-0.24505 -0.159975,-0.46009 -0.382812,-0.59375 l -3.445313,-2.0664 -2.642578,-1.58594 -0.626953,-0.375 c -0.445675,-0.26731 -1.048453,-0.26732 -1.494141,0 z"
             style="color:#000000;font-style:normal;font-variant:normal;font-weight:normal;font-stretch:normal;font-size:medium;line-height:normal;font-family:sans-serif;font-variant-ligatures:normal;font-variant-position:normal;font-variant-caps:normal;font-variant-numeric:normal;font-variant-alternates:normal;font-variant-east-asian:normal;font-feature-settings:normal;font-variation-settings:normal;text-indent:0;text-align:start;text-decoration:none;text-decoration-line:none;text-decoration-style:solid;text-decoration-color:#000000;letter-spacing:normal;word-spacing:normal;text-transform:none;writing-mode:lr-tb;direction:ltr;text-orientation:mixed;dominant-baseline:auto;baseline-shift:baseline;text-anchor:start;white-space:normal;shape-padding:0;shape-margin:0;inline-size:0;clip-rule:nonzero;display:inline;overflow:visible;visibility:visible;isolation:auto;mix-blend-mode:normal;color-interpolation:sRGB;color-interpolation-filters:linearRGB;solid-color:#000000;solid-opacity:1;vector-effect:none;fill:#d0e2ee;fill-opacity:1;fill-rule:nonzero;stroke:none;stroke-width:0.424303;stroke-linecap:round;stroke-linejoin:round;stroke-miterlimit:4;stroke-dasharray:none;stroke-dashoffset:0;stroke-opacity:1;color-rendering:auto;image-rendering:auto;shape-rendering:auto;text-rendering:auto;enable-background:accumulate;stop-color:#000000" />
          <path
             id="path1212"
             d="m 36.875,283.9082 c -0.251312,0.003 -0.501313,0.10943 -0.673828,0.32032 l -2.125,2.5996 a 0.26460996,0.26460996 0 0 0 0.06836,0.39454 l 4.076172,2.44336 a 0.26460996,0.26460996 0 0 0 0.02539,0.0137 c 0.476376,0.21867 0.995998,0.24295 1.458984,-0.008 a 0.26460996,0.26460996 0 0 0 0.0098,-0.006 l 3.357422,-2.01368 a 0.26460996,0.26460996 0 0 0 0.08984,-0.36328 l -1.144531,-1.89062 c -0.285897,-0.47244 -0.900681,-0.63642 -1.382812,-0.36719 l -1.607422,0.89844 -1.470703,-1.7168 c -0.177343,-0.20657 -0.43036,-0.30727 -0.681672,-0.30439 z"
             style="color:#000000;font-style:normal;font-variant:normal;font-weight:normal;font-stretch:normal;font-size:medium;line-height:normal;font-family:sans-serif;font-variant-ligatures:normal;font-variant-position:normal;font-variant-caps:normal;font-variant-numeric:normal;font-variant-alternates:normal;font-variant-east-asian:normal;font-feature-settings:normal;font-variation-settings:normal;text-indent:0;text-align:start;text-decoration:none;text-decoration-line:none;text-decoration-style:solid;text-decoration-color:#000000;letter-spacing:normal;word-spacing:normal;text-transform:none;writing-mode:lr-tb;direction:ltr;text-orientation:mixed;dominant-baseline:auto;baseline-shift:baseline;text-anchor:start;white-space:normal;shape-padding:0;shape-margin:0;inline-size:0;clip-rule:nonzero;display:inline;overflow:visible;visibility:visible;isolation:auto;mix-blend-mode:normal;color-interpolation:sRGB;color-interpolation-filters:linearRGB;solid-color:#000000;solid-opacity:1;vector-effect:none;fill:#50b86b;fill-opacity:1;fill-rule:nonzero;stroke:none;stroke-width:0.424303;stroke-linecap:round;stroke-linejoin:round;stroke-miterlimit:4;stroke-dasharray:none;stroke-dashoffset:0;stroke-opacity:1;color-rendering:auto;image-rendering:auto;shape-rendering:auto;text-rendering:auto;enable-background:accumulate;stop-color:#000000" />
          <path
             transform="matrix(0.26458334,0,0,0.26458334,0,280.06666)"
             d="m 147.2793,0.59179688 c -0.99067,-4.73e-6 -1.98002,0.25264085 -2.82227,0.75781252 l -4.58789,2.75 31.93945,19.1640626 3.67383,-2.205078 c 0.84224,-0.505172 1.44728,-1.315977 1.44727,-2.242188 -1e-5,-0.926173 -0.60505,-1.738969 -1.44727,-2.24414 L 162.46094,8.7617188 152.47266,2.7675781 150.10352,1.3496094 C 149.2613,0.84445662 148.26997,0.5918016 147.2793,0.59179688 Z"
             style="fill:#aabfd0;fill-opacity:1;stroke:none;stroke-width:1.60366;stroke-linecap:round;stroke-linejoin:round;stroke-opacity:1"
             id="path1376" />
          <path
             id="path1176"
             d="m 42.853516,281.08594 a 0.26460996,0.26460996 0 0 0 -0.146485,0.0547 l -0.8125,0.62305 -0.798828,-0.45312 a 0.26460996,0.26460996 0 0 0 -0.3125,0.0391 l -0.666015,0.63477 a 0.2645835,0.2645835 0 0 0 -0.0098,0.37304 0.2645835,0.2645835 0 0 0 0.375,0.01 l 0.523437,-0.5 0.78125,0.44336 a 0.26460996,0.26460996 0 0 0 0.291016,-0.0215 l 0.771484,-0.59179 0.501953,0.47851 a 0.2645835,0.2645835 0 0 0 0.373047,-0.008 0.2645835,0.2645835 0 0 0 -0.0078,-0.375 l -0.666016,-0.63477 a 0.26460996,0.26460996 0 0 0 -0.197265,-0.0723 z"
             style="color:#000000;font-style:normal;font-variant:normal;font-weight:normal;font-stretch:normal;font-size:medium;line-height:normal;font-family:sans-serif;font-variant-ligatures:normal;font-variant-position:normal;font-variant-caps:normal;font-variant-numeric:normal;font-variant-alternates:normal;font-variant-east-asian:normal;font-feature-settings:normal;font-variation-settings:normal;text-indent:0;text-align:start;text-decoration:none;text-decoration-line:none;text-decoration-style:solid;text-decoration-color:#000000;letter-spacing:normal;word-spacing:normal;text-transform:none;writing-mode:lr-tb;direction:ltr;text-orientation:mixed;dominant-baseline:auto;baseline-shift:baseline;text-anchor:start;white-space:normal;shape-padding:0;shape-margin:0;inline-size:0;clip-rule:nonzero;display:inline;overflow:visible;visibility:visible;opacity:1;isolation:auto;mix-blend-mode:normal;color-interpolation:sRGB;color-interpolation-filters:linearRGB;solid-color:#000000;solid-opacity:1;vector-effect:none;fill:#7d8e9e;fill-opacity:1;fill-rule:nonzero;stroke:none;stroke-width:0.424303;stroke-linecap:round;stroke-linejoin:round;stroke-miterlimit:4;stroke-dasharray:none;stroke-dashoffset:0;stroke-opacity:1;color-rendering:auto;image-rendering:auto;shape-rendering:auto;text-rendering:auto;enable-background:accumulate;stop-color:#000000;stop-opacity:1" />
          <path
             id="path1283"
             d="m 37.910156,291.1582 a 0.2645835,0.2645835 0 0 0 -0.265625,0.26368 0.2645835,0.2645835 0 0 0 0.265625,0.26367 h 1.585938 a 0.2645835,0.2645835 0 0 0 0.265625,-0.26367 0.2645835,0.2645835 0 0 0 -0.265625,-0.26368 z"
             style="color:#000000;font-style:normal;font-variant:normal;font-weight:normal;font-stretch:normal;font-size:medium;line-height:normal;font-family:sans-serif;font-variant-ligatures:normal;font-variant-position:normal;font-variant-caps:normal;font-variant-numeric:normal;font-variant-alternates:normal;font-variant-east-asian:normal;font-feature-settings:normal;font-variation-settings:normal;text-indent:0;text-align:start;text-decoration:none;text-decoration-line:none;text-decoration-style:solid;text-decoration-color:#000000;letter-spacing:normal;word-spacing:normal;text-transform:none;writing-mode:lr-tb;direction:ltr;text-orientation:mixed;dominant-baseline:auto;baseline-shift:baseline;text-anchor:start;white-space:normal;shape-padding:0;shape-margin:0;inline-size:0;clip-rule:nonzero;display:inline;overflow:visible;visibility:visible;opacity:1;isolation:auto;mix-blend-mode:normal;color-interpolation:sRGB;color-interpolation-filters:linearRGB;solid-color:#000000;solid-opacity:1;vector-effect:none;fill:#3a4d5c;fill-opacity:1;fill-rule:nonzero;stroke:none;stroke-width:0.424303;stroke-linecap:round;stroke-linejoin:round;stroke-miterlimit:4;stroke-dasharray:none;stroke-dashoffset:0;stroke-opacity:1;color-rendering:auto;image-rendering:auto;shape-rendering:auto;text-rendering:auto;enable-background:accumulate;stop-color:#000000;stop-opacity:1" />
          <path
             id="path1287"
             d="m 40.554688,290.89258 a 0.2645835,0.2645835 0 0 0 -0.263672,0.26562 0.2645835,0.2645835 0 0 0 0.263672,0.26368 h 0.265624 a 0.2645835,0.2645835 0 0 0 0.263672,-0.26368 0.2645835,0.2645835 0 0 0 -0.263672,-0.26562 z"
             style="color:#000000;font-style:normal;font-variant:normal;font-weight:normal;font-stretch:normal;font-size:medium;line-height:normal;font-family:sans-serif;font-variant-ligatures:normal;font-variant-position:normal;font-variant-caps:normal;font-variant-numeric:normal;font-variant-alternates:normal;font-variant-east-asian:normal;font-feature-settings:normal;font-variation-settings:normal;text-indent:0;text-align:start;text-decoration:none;text-decoration-line:none;text-decoration-style:solid;text-decoration-color:#000000;letter-spacing:normal;word-spacing:normal;text-transform:none;writing-mode:lr-tb;direction:ltr;text-orientation:mixed;dominant-baseline:auto;baseline-shift:baseline;text-anchor:start;white-space:normal;shape-padding:0;shape-margin:0;inline-size:0;clip-rule:nonzero;display:inline;overflow:visible;visibility:visible;opacity:1;isolation:auto;mix-blend-mode:normal;color-interpolation:sRGB;color-interpolation-filters:linearRGB;solid-color:#000000;solid-opacity:1;vector-effect:none;fill:#3a4d5c;fill-opacity:1;fill-rule:nonzero;stroke:none;stroke-width:0.424303;stroke-linecap:round;stroke-linejoin:round;stroke-miterlimit:4;stroke-dasharray:none;stroke-dashoffset:0;stroke-opacity:1;color-rendering:auto;image-rendering:auto;shape-rendering:auto;text-rendering:auto;enable-background:accumulate;stop-color:#000000;stop-opacity:1" />
          <path
             id="path1293"
             d="m 33.675781,288.77539 a 0.2645835,0.2645835 0 0 0 -0.263672,0.26563 0.2645835,0.2645835 0 0 0 0.263672,0.26367 h 2.646485 a 0.2645835,0.2645835 0 0 0 0.263672,-0.26367 0.2645835,0.2645835 0 0 0 -0.263672,-0.26563 z"
             style="color:#000000;font-style:normal;font-variant:normal;font-weight:normal;font-stretch:normal;font-size:medium;line-height:normal;font-family:sans-serif;font-variant-ligatures:normal;font-variant-position:normal;font-variant-caps:normal;font-variant-numeric:normal;font-variant-alternates:normal;font-variant-east-asian:normal;font-feature-settings:normal;font-variation-settings:normal;text-indent:0;text-align:start;text-decoration:none;text-decoration-line:none;text-decoration-style:solid;text-decoration-color:#000000;letter-spacing:normal;word-spacing:normal;text-transform:none;writing-mode:lr-tb;direction:ltr;text-orientation:mixed;dominant-baseline:auto;baseline-shift:baseline;text-anchor:start;white-space:normal;shape-padding:0;shape-margin:0;inline-size:0;clip-rule:nonzero;display:inline;overflow:visible;visibility:visible;opacity:1;isolation:auto;mix-blend-mode:normal;color-interpolation:sRGB;color-interpolation-filters:linearRGB;solid-color:#000000;solid-opacity:1;vector-effect:none;fill:#3a4d5c;fill-opacity:1;fill-rule:nonzero;stroke:none;stroke-width:0.424303;stroke-linecap:round;stroke-linejoin:round;stroke-miterlimit:4;stroke-dasharray:none;stroke-dashoffset:0;stroke-opacity:1;color-rendering:auto;image-rendering:auto;shape-rendering:auto;text-rendering:auto;enable-background:accumulate;stop-color:#000000;stop-opacity:1" />
          <path
             id="path1297"
             d="m 41.613281,288.77539 a 0.2645835,0.2645835 0 0 0 -0.263672,0.26563 0.2645835,0.2645835 0 0 0 0.263672,0.26367 h 1.058594 a 0.2645835,0.2645835 0 0 0 0.263672,-0.26367 0.2645835,0.2645835 0 0 0 -0.263672,-0.26563 z"
             style="color:#000000;font-style:normal;font-variant:normal;font-weight:normal;font-stretch:normal;font-size:medium;line-height:normal;font-family:sans-serif;font-variant-ligatures:normal;font-variant-position:normal;font-variant-caps:normal;font-variant-numeric:normal;font-variant-alternates:normal;font-variant-east-asian:normal;font-feature-settings:normal;font-variation-settings:normal;text-indent:0;text-align:start;text-decoration:none;text-decoration-line:none;text-decoration-style:solid;text-decoration-color:#000000;letter-spacing:normal;word-spacing:normal;text-transform:none;writing-mode:lr-tb;direction:ltr;text-orientation:mixed;dominant-baseline:auto;baseline-shift:baseline;text-anchor:start;white-space:normal;shape-padding:0;shape-margin:0;inline-size:0;clip-rule:nonzero;display:inline;overflow:visible;visibility:visible;opacity:1;isolation:auto;mix-blend-mode:normal;color-interpolation:sRGB;color-interpolation-filters:linearRGB;solid-color:#000000;solid-opacity:1;vector-effect:none;fill:#3a4d5c;fill-opacity:1;fill-rule:nonzero;stroke:none;stroke-width:0.424303;stroke-linecap:round;stroke-linejoin:round;stroke-miterlimit:4;stroke-dasharray:none;stroke-dashoffset:0;stroke-opacity:1;color-rendering:auto;image-rendering:auto;shape-rendering:auto;text-rendering:auto;enable-background:accumulate;stop-color:#000000;stop-opacity:1" />
          <path
             id="path1301"
             d="m 35.527344,289.83398 a 0.2645835,0.2645835 0 0 0 -0.263672,0.26563 0.2645835,0.2645835 0 0 0 0.263672,0.26367 h 0.794922 a 0.2645835,0.2645835 0 0 0 0.263672,-0.26367 0.2645835,0.2645835 0 0 0 -0.263672,-0.26563 z"
             style="color:#000000;font-style:normal;font-variant:normal;font-weight:normal;font-stretch:normal;font-size:medium;line-height:normal;font-family:sans-serif;font-variant-ligatures:normal;font-variant-position:normal;font-variant-caps:normal;font-variant-numeric:normal;font-variant-alternates:normal;font-variant-east-asian:normal;font-feature-settings:normal;font-variation-settings:normal;text-indent:0;text-align:start;text-decoration:none;text-decoration-line:none;text-decoration-style:solid;text-decoration-color:#000000;letter-spacing:normal;word-spacing:normal;text-transform:none;writing-mode:lr-tb;direction:ltr;text-orientation:mixed;dominant-baseline:auto;baseline-shift:baseline;text-anchor:start;white-space:normal;shape-padding:0;shape-margin:0;inline-size:0;clip-rule:nonzero;display:inline;overflow:visible;visibility:visible;opacity:1;isolation:auto;mix-blend-mode:normal;color-interpolation:sRGB;color-interpolation-filters:linearRGB;solid-color:#000000;solid-opacity:1;vector-effect:none;fill:#3a4d5c;fill-opacity:1;fill-rule:nonzero;stroke:none;stroke-width:0.424303;stroke-linecap:round;stroke-linejoin:round;stroke-miterlimit:4;stroke-dasharray:none;stroke-dashoffset:0;stroke-opacity:1;color-rendering:auto;image-rendering:auto;shape-rendering:auto;text-rendering:auto;enable-background:accumulate;stop-color:#000000;stop-opacity:1" />
          <path
             id="path1307"
             d="m 40.025391,289.83398 a 0.2645835,0.2645835 0 0 0 -0.263672,0.26563 0.2645835,0.2645835 0 0 0 0.263672,0.26367 h 2.380859 a 0.2645835,0.2645835 0 0 0 0.265625,-0.26367 0.2645835,0.2645835 0 0 0 -0.265625,-0.26563 z"
             style="color:#000000;font-style:normal;font-variant:normal;font-weight:normal;font-stretch:normal;font-size:medium;line-height:normal;font-family:sans-serif;font-variant-ligatures:normal;font-variant-position:normal;font-variant-caps:normal;font-variant-numeric:normal;font-variant-alternates:normal;font-variant-east-asian:normal;font-feature-settings:normal;font-variation-settings:normal;text-indent:0;text-align:start;text-decoration:none;text-decoration-line:none;text-decoration-style:solid;text-decoration-color:#000000;letter-spacing:normal;word-spacing:normal;text-transform:none;writing-mode:lr-tb;direction:ltr;text-orientation:mixed;dominant-baseline:auto;baseline-shift:baseline;text-anchor:start;white-space:normal;shape-padding:0;shape-margin:0;inline-size:0;clip-rule:nonzero;display:inline;overflow:visible;visibility:visible;opacity:1;isolation:auto;mix-blend-mode:normal;color-interpolation:sRGB;color-interpolation-filters:linearRGB;solid-color:#000000;solid-opacity:1;vector-effect:none;fill:#3a4d5c;fill-opacity:1;fill-rule:nonzero;stroke:none;stroke-width:0.424303;stroke-linecap:round;stroke-linejoin:round;stroke-miterlimit:4;stroke-dasharray:none;stroke-dashoffset:0;stroke-opacity:1;color-rendering:auto;image-rendering:auto;shape-rendering:auto;text-rendering:auto;enable-background:accumulate;stop-color:#000000;stop-opacity:1" />
          <path
             id="path1311"
             d="m 37.898438,293.53906 a 0.2645835,0.2645835 0 0 0 -0.107422,0.0274 l -1.058594,0.52929 a 0.26460996,0.26460996 0 0 0 0,0.47266 l 1.058594,0.5293 a 0.2645835,0.2645835 0 0 0 0.355468,-0.11719 0.2645835,0.2645835 0 0 0 -0.11914,-0.35547 l -0.585938,-0.29297 0.585938,-0.29297 a 0.2645835,0.2645835 0 0 0 0.11914,-0.35351 0.2645835,0.2645835 0 0 0 -0.248046,-0.14649 z"
             style="color:#000000;font-style:normal;font-variant:normal;font-weight:normal;font-stretch:normal;font-size:medium;line-height:normal;font-family:sans-serif;font-variant-ligatures:normal;font-variant-position:normal;font-variant-caps:normal;font-variant-numeric:normal;font-variant-alternates:normal;font-variant-east-asian:normal;font-feature-settings:normal;font-variation-settings:normal;text-indent:0;text-align:start;text-decoration:none;text-decoration-line:none;text-decoration-style:solid;text-decoration-color:#000000;letter-spacing:normal;word-spacing:normal;text-transform:none;writing-mode:lr-tb;direction:ltr;text-orientation:mixed;dominant-baseline:auto;baseline-shift:baseline;text-anchor:start;white-space:normal;shape-padding:0;shape-margin:0;inline-size:0;clip-rule:nonzero;display:inline;overflow:visible;visibility:visible;opacity:1;isolation:auto;mix-blend-mode:normal;color-interpolation:sRGB;color-interpolation-filters:linearRGB;solid-color:#000000;solid-opacity:1;vector-effect:none;fill:#7d8e9e;fill-opacity:1;fill-rule:nonzero;stroke:none;stroke-width:0.424303;stroke-linecap:round;stroke-linejoin:round;stroke-miterlimit:4;stroke-dasharray:none;stroke-dashoffset:0;stroke-opacity:1;color-rendering:auto;image-rendering:auto;shape-rendering:auto;text-rendering:auto;enable-background:accumulate;stop-color:#000000;stop-opacity:1" />
          <path
             id="path1315"
             d="m 40.019531,293.53906 a 0.2645835,0.2645835 0 0 0 -0.230469,0.14649 0.2645835,0.2645835 0 0 0 0.119141,0.35351 l 0.585938,0.29297 -0.585938,0.29297 a 0.2645835,0.2645835 0 0 0 -0.119141,0.35547 0.2645835,0.2645835 0 0 0 0.355469,0.11719 l 1.058594,-0.5293 a 0.26460996,0.26460996 0 0 0 0,-0.47266 l -1.058594,-0.52929 a 0.2645835,0.2645835 0 0 0 -0.125,-0.0274 z"
             style="color:#000000;font-style:normal;font-variant:normal;font-weight:normal;font-stretch:normal;font-size:medium;line-height:normal;font-family:sans-serif;font-variant-ligatures:normal;font-variant-position:normal;font-variant-caps:normal;font-variant-numeric:normal;font-variant-alternates:normal;font-variant-east-asian:normal;font-feature-settings:normal;font-variation-settings:normal;text-indent:0;text-align:start;text-decoration:none;text-decoration-line:none;text-decoration-style:solid;text-decoration-color:#000000;letter-spacing:normal;word-spacing:normal;text-transform:none;writing-mode:lr-tb;direction:ltr;text-orientation:mixed;dominant-baseline:auto;baseline-shift:baseline;text-anchor:start;white-space:normal;shape-padding:0;shape-margin:0;inline-size:0;clip-rule:nonzero;display:inline;overflow:visible;visibility:visible;opacity:1;isolation:auto;mix-blend-mode:normal;color-interpolation:sRGB;color-interpolation-filters:linearRGB;solid-color:#000000;solid-opacity:1;vector-effect:none;fill:#7d8e9e;fill-opacity:1;fill-rule:nonzero;stroke:none;stroke-width:0.424303;stroke-linecap:round;stroke-linejoin:round;stroke-miterlimit:4;stroke-dasharray:none;stroke-dashoffset:0;stroke-opacity:1;color-rendering:auto;image-rendering:auto;shape-rendering:auto;text-rendering:auto;enable-background:accumulate;stop-color:#000000;stop-opacity:1" />
          <path
             id="path1320"
             d="m 39.224609,293.53906 a 0.2645835,0.2645835 0 0 0 -0.228515,0.14649 l -0.529297,1.05664 a 0.2645835,0.2645835 0 0 0 0.117187,0.35547 0.2645835,0.2645835 0 0 0 0.355469,-0.11719 l 0.529297,-1.05859 a 0.2645835,0.2645835 0 0 0 -0.119141,-0.35547 0.2645835,0.2645835 0 0 0 -0.125,-0.0274 z"
             style="color:#000000;font-style:normal;font-variant:normal;font-weight:normal;font-stretch:normal;font-size:medium;line-height:normal;font-family:sans-serif;font-variant-ligatures:normal;font-variant-position:normal;font-variant-caps:normal;font-variant-numeric:normal;font-variant-alternates:normal;font-variant-east-asian:normal;font-feature-settings:normal;font-variation-settings:normal;text-indent:0;text-align:start;text-decoration:none;text-decoration-line:none;text-decoration-style:solid;text-decoration-color:#000000;letter-spacing:normal;word-spacing:normal;text-transform:none;writing-mode:lr-tb;direction:ltr;text-orientation:mixed;dominant-baseline:auto;baseline-shift:baseline;text-anchor:start;white-space:normal;shape-padding:0;shape-margin:0;inline-size:0;clip-rule:nonzero;display:inline;overflow:visible;visibility:visible;opacity:1;isolation:auto;mix-blend-mode:normal;color-interpolation:sRGB;color-interpolation-filters:linearRGB;solid-color:#000000;solid-opacity:1;vector-effect:none;fill:#7d8e9e;fill-opacity:1;fill-rule:nonzero;stroke:none;stroke-width:0.424303;stroke-linecap:round;stroke-linejoin:round;stroke-miterlimit:4;stroke-dasharray:none;stroke-dashoffset:0;stroke-opacity:1;color-rendering:auto;image-rendering:auto;shape-rendering:auto;text-rendering:auto;enable-background:accumulate;stop-color:#000000;stop-opacity:1" />
          <path
             transform="matrix(0.26458334,0,0,0.26458334,0,280.06666)"
             d="m 139.36914,14.519531 c -0.94984,0.01134 -1.8929,0.413873 -2.54492,1.210938 l -1.33203,1.628906 8.24228,8.519405 a 5.1184154,5.1184154 10.193606 0 0 5.88697,1.058555 l 2.6441,-1.264568 a 3.7497453,3.7497453 16.577888 0 1 4.82238,1.43559 l 2.21872,3.651409 3.48633,-2.089844 c 0.47304,-0.285281 0.6252,-0.900054 0.33984,-1.373047 l -4.32617,-7.146484 c -1.08055,-1.7856 -3.40433,-2.406234 -5.22656,-1.388672 l -6.07422,3.396484 -5.55859,-6.488281 c -0.67028,-0.780737 -1.62829,-1.161276 -2.57813,-1.150391 z"
             style="fill:#449c5f;fill-opacity:1;stroke:none;stroke-width:1.60366;stroke-linecap:round;stroke-linejoin:round;stroke-opacity:1"
             id="path1397" />
        </g>
        <path
           id="path1485"
           style="color:#000000;font-style:normal;font-variant:normal;font-weight:normal;font-stretch:normal;font-size:medium;line-height:normal;font-family:sans-serif;font-variant-ligatures:normal;font-variant-position:normal;font-variant-caps:normal;font-variant-numeric:normal;font-variant-alternates:normal;font-variant-east-asian:normal;font-feature-settings:normal;font-variation-settings:normal;text-indent:0;text-align:start;text-decoration:none;text-decoration-line:none;text-decoration-style:solid;text-decoration-color:#000000;letter-spacing:normal;word-spacing:normal;text-transform:none;writing-mode:lr-tb;direction:ltr;text-orientation:mixed;dominant-baseline:auto;baseline-shift:baseline;text-anchor:start;white-space:normal;shape-padding:0;shape-margin:0;inline-size:0;clip-rule:nonzero;display:inline;overflow:visible;visibility:visible;isolation:auto;mix-blend-mode:normal;color-interpolation:sRGB;color-interpolation-filters:linearRGB;solid-color:#000000;solid-opacity:1;vector-effect:none;fill:#000000;fill-opacity:1;fill-rule:nonzero;stroke:none;stroke-width:0.424303;stroke-linecap:round;stroke-linejoin:round;stroke-miterlimit:4;stroke-dasharray:none;stroke-dashoffset:0;stroke-opacity:1;color-rendering:auto;image-rendering:auto;shape-rendering:auto;text-rendering:auto;enable-background:accumulate;stop-color:#000000"
           d="m 38.967649,280.22324 c -0.262115,0 -0.523881,0.0668 -0.746726,0.2005 l -6.716903,4.02767 c -0.22284,0.13366 -0.380852,0.34871 -0.380855,0.59376 -2e-6,0.24506 0.158017,0.45958 0.380855,0.59324 l 6.716903,4.02766 c 0.44568,0.2673 1.048279,0.26731 1.493967,0 l 6.714834,-4.02766 c 0.222842,-0.13366 0.382926,-0.34818 0.382923,-0.59324 -2e-6,-0.24505 -0.160086,-0.4601 -0.382923,-0.59376 l -3.445267,-2.06654 a 0.26458349,0.26458349 0 0 0 -0.363286,0.0915 0.26458349,0.26458349 0 0 0 0.09147,0.36174 l 3.445786,2.06809 c 0.115406,0.0692 0.124539,0.1193 0.124539,0.13901 0,0.0197 -0.0091,0.0693 -0.124539,0.13849 l -3.133143,1.87947 -1.00769,-1.66501 c -0.285895,-0.47245 -0.900728,-0.63614 -1.38286,-0.3669 l -1.607137,0.89813 -1.470711,-1.71669 c -0.177313,-0.20666 -0.430818,-0.30725 -0.68213,-0.30437 -0.251312,0.003 -0.500827,0.1095 -0.673343,0.32039 l -1.980243,2.42156 -2.443776,-1.46658 c -0.115406,-0.0692 -0.125058,-0.11877 -0.125058,-0.13849 0,-0.0197 0.0097,-0.0698 0.125058,-0.13901 l 6.714834,-4.02921 c 0.230817,-0.13844 0.718484,-0.13843 0.949296,0 l 0.626835,0.37672 a 0.26458349,0.26458349 0 0 0 0.363286,-0.0915 0.26458349,0.26458349 0 0 0 -0.08992,-0.36328 l -0.626835,-0.37518 c -0.222837,-0.13365 -0.485127,-0.2005 -0.747241,-0.2005 z m 3.886067,0.86248 a 0.26460995,0.26460995 0 0 0 -0.146762,0.0548 l -0.812353,0.62321 -0.798917,-0.4532 a 0.26460995,0.26460995 0 0 0 -0.312645,0.0393 l -0.666107,0.63458 a 0.26458349,0.26458349 0 0 0 -0.0093,0.37311 0.26458349,0.26458349 0 0 0 0.374656,0.01 l 0.52348,-0.49972 0.781349,0.44339 a 0.26460995,0.26460995 0 0 0 0.290938,-0.0217 l 0.771528,-0.59169 0.50178,0.47852 a 0.26458349,0.26458349 0 0 0 0.373102,-0.008 0.26458349,0.26458349 0 0 0 -0.0078,-0.37465 l -0.666096,-0.6351 a 0.26460995,0.26460995 0 0 0 -0.196887,-0.0718 z m -5.972246,3.34502 c 0.09947,-0.002 0.1993,0.0399 0.272851,0.12557 l 1.61334,1.88102 c 0.08178,0.0946 0.218664,0.11886 0.328144,0.0584 l 1.79679,-1.00201 c 0.238146,-0.13299 0.532643,-0.0556 0.673859,0.17777 l 1.005108,1.66346 -3.130042,1.87792 c -0.230817,0.13844 -0.718487,0.13843 -0.949296,0 l -3.81217,-2.28771 1.931149,-2.36058 c 0.07156,-0.0875 0.170802,-0.13228 0.270267,-0.13384 z m -4.013192,2.66495 a 0.26458349,0.26458349 0 0 0 -0.12609,0.0393 l -1.242301,0.78497 c -0.217384,0.13711 -0.373581,0.34756 -0.374655,0.59169 -0.0011,0.24413 0.156728,0.45851 0.378788,0.5917 l 6.716903,4.02766 c 0.445688,0.26732 1.04829,0.2673 1.493967,0 l 6.714834,-4.02766 c 0.22362,-0.13413 0.383405,-0.34935 0.384474,-0.59531 0.0011,-0.24596 -0.160346,-0.46371 -0.388607,-0.59377 l -1.267624,-0.72502 a 0.26458349,0.26458349 0 0 0 -0.361217,0.0997 0.26458349,0.26458349 0 0 0 0.09973,0.36122 l 1.267625,0.72295 c 0.11462,0.0653 0.121012,0.11213 0.120922,0.13281 -9e-5,0.0207 -0.01199,0.0738 -0.126608,0.14263 l -6.716903,4.02921 c -0.230812,0.13844 -0.718479,0.13845 -0.949296,0 l -6.714834,-4.02921 c -0.116194,-0.0697 -0.12514,-0.11613 -0.125058,-0.13488 8.2e-5,-0.0188 0.01246,-0.0735 0.128675,-0.14676 l 1.244367,-0.7829 a 0.26458349,0.26458349 0 0 0 0.08217,-0.36535 0.26458349,0.26458349 0 0 0 -0.21704,-0.12299 0.26458349,0.26458349 0 0 0 -0.02222,0 z m 0.807704,1.67948 a 0.26458349,0.26458349 0 0 0 -0.264068,0.26562 0.26458349,0.26458349 0 0 0 0.264068,0.26407 h 2.646349 a 0.26458349,0.26458349 0 0 0 0.263549,-0.26407 0.26458349,0.26458349 0 0 0 -0.263549,-0.26562 z m 7.9375,0 a 0.26458349,0.26458349 0 0 0 -0.264068,0.26562 0.26458349,0.26458349 0 0 0 0.264068,0.26407 h 1.058333 a 0.26458349,0.26458349 0 0 0 0.263549,-0.26407 0.26458349,0.26458349 0 0 0 -0.263549,-0.26562 z m -6.085935,1.05885 a 0.26458349,0.26458349 0 0 0 -0.264065,0.26562 0.26458349,0.26458349 0 0 0 0.264065,0.26355 h 0.794784 a 0.26458349,0.26458349 0 0 0 0.263549,-0.26355 0.26458349,0.26458349 0 0 0 -0.263549,-0.26562 z m 4.497916,0 a 0.26458349,0.26458349 0 0 0 -0.263549,0.26562 0.26458349,0.26458349 0 0 0 0.263549,0.26355 h 2.380734 a 0.26458349,0.26458349 0 0 0 0.265618,-0.26355 0.26458349,0.26458349 0 0 0 -0.265618,-0.26562 z m -7.150468,0.68368 a 0.26458349,0.26458349 0 0 0 -0.148309,0.0429 l -1.230416,0.80098 c -0.213831,0.13923 -0.369244,0.34818 -0.371038,0.59169 -0.0019,0.24352 0.157215,0.45673 0.378788,0.58963 l 6.716903,4.02766 c 0.445685,0.26732 1.048287,0.26732 1.493967,0 l 6.714834,-4.02766 c 0.222588,-0.13351 0.383225,-0.34897 0.382923,-0.59376 -2.64e-4,-0.24479 -0.159618,-0.45698 -0.380857,-0.5917 l -1.211294,-0.73845 a 0.26458349,0.26458349 0 0 0 -0.363286,0.0879 0.26458349,0.26458349 0 0 0 0.08785,0.36328 l 1.211297,0.73846 c 0.115703,0.0705 0.126582,0.12323 0.126606,0.14263 2.6e-5,0.0194 -0.0088,0.0676 -0.124539,0.13694 l -6.716903,4.02921 c -0.230807,0.13844 -0.718473,0.13844 -0.949296,0 l -6.714834,-4.02921 c -0.116681,-0.07 -0.123124,-0.11309 -0.122992,-0.13126 1.35e-4,-0.0182 0.01405,-0.076 0.130742,-0.15193 l 1.230414,-0.80103 a 0.26458349,0.26458349 0 0 0 0.07648,-0.36536 0.26458349,0.26458349 0 0 0 -0.217043,-0.12092 z m 7.679635,0.37466 a 0.26458349,0.26458349 0 0 0 -0.263549,0.26561 0.26458349,0.26458349 0 0 0 0.263549,0.26407 h 0.265618 a 0.26458349,0.26458349 0 0 0 0.263549,-0.26407 0.26458349,0.26458349 0 0 0 -0.263549,-0.26561 z m -2.644283,0.26561 a 0.26458349,0.26458349 0 0 0 -0.265615,0.26407 0.26458349,0.26458349 0 0 0 0.265615,0.26355 h 1.58595 a 0.26458349,0.26458349 0 0 0 0.265617,-0.26355 0.26458349,0.26458349 0 0 0 -0.265617,-0.26407 z m 0.0036,2.38074 a 0.26458349,0.26458349 0 0 0 -0.0155,5.3e-4 0.26458349,0.26458349 0 0 0 -0.107487,0.0274 l -1.058333,0.52917 a 0.26460995,0.26460995 0 0 0 0,0.47284 l 1.058333,0.52917 a 0.26458349,0.26458349 0 0 0 0.355534,-0.11731 0.26458349,0.26458349 0 0 0 -0.119372,-0.35553 l -0.585494,-0.29301 0.585494,-0.293 a 0.26458349,0.26458349 0 0 0 0.119372,-0.35347 0.26458349,0.26458349 0 0 0 -0.232542,-0.14676 z m 1.310513,5.3e-4 a 0.26458349,0.26458349 0 0 0 -0.228405,0.14624 l -0.529166,1.05678 a 0.26458349,0.26458349 0 0 0 0.117305,0.35554 0.26458349,0.26458349 0 0 0 0.355018,-0.11731 l 0.529683,-1.05885 a 0.26458349,0.26458349 0 0 0 -0.119377,-0.35503 0.26458349,0.26458349 0 0 0 -0.125058,-0.0274 z m 0.795301,0 a 0.26458349,0.26458349 0 0 0 -0.230476,0.14624 0.26458349,0.26458349 0 0 0 0.118853,0.35347 l 0.586012,0.293 -0.586012,0.29301 a 0.26458349,0.26458349 0 0 0 -0.118853,0.35553 0.26458349,0.26458349 0 0 0 0.355015,0.11731 l 1.058851,-0.52917 a 0.26460995,0.26460995 0 0 0 0,-0.47284 l -1.058846,-0.52917 a 0.26458349,0.26458349 0 0 0 -0.12454,-0.0274 z" />
      </g>
    </g>
  </g>
</svg>
