<?xml version="1.0" encoding="UTF-8" standalone="no"?>
<svg width="44px" height="65px" viewBox="0 0 44 65" version="1.1" xmlns="http://www.w3.org/2000/svg" xmlns:xlink="http://www.w3.org/1999/xlink" xmlns:sketch="http://www.bohemiancoding.com/sketch/ns">
    <!-- Generator: Sketch 3.0.3 (7891) - http://www.bohemiancoding.com/sketch -->
    <title>Phone-call</title>
    <desc>Created with Sketch.</desc>
    <defs></defs>
    <g id="Page-1" stroke="none" stroke-width="1" fill="none" fill-rule="evenodd" sketch:type="MSPage">
        <path d="M1.1,18.2 C1.1,18.2 3.6,25.1 9.9,38.2 C9.9,38.2 9.9,38.2 9.9,38.3 C16.3,51.4 20.4,57.3 20.4,57.3 C24.6,61.8 31.6,63.8 39.1,60.2 C43.2,58.2 42.5,53.5 38.7,45.7 L38.7,45.7 C35.3,38.7 31.5,38.5 29,40.7 C28.5,41.1 26.9,42.6 26.8,43.1 C26.8,43.1 25.3,45.6 19.6,33.7 C13.9,21.9 16.2,22.5 16.2,22.5 C16.6,22.6 18.8,22.9 19.4,22.7 C22.6,22 25.2,18.6 21.5,11 L21.5,11 C17.7,3.2 14.5,-0.3 10.4,1.7 C4.2,4.6 0.2,12.1 1.1,18.2 L1.1,18.2 Z" id="Phone-call" stroke="#6B6C6E" stroke-width="2" sketch:type="MSShapeGroup"></path>
    </g>
</svg>